<?xml version="1.0" encoding="UTF-8"?>
<svg version="1.1" xmlns="http://www.w3.org/2000/svg" width="512" height="512">
<path d="M0 0 C0.95390625 -0.0038269 1.9078125 -0.00765381 2.890625 -0.01159668 C4.90105245 -0.01431036 6.91151553 -0.00698737 8.921875 0.00976562 C11.99038787 0.03118291 15.05655952 0.00994534 18.125 -0.015625 C20.08333848 -0.01298163 22.0416755 -0.00785645 24 0 C25.36898437 -0.01214539 25.36898437 -0.01214539 26.765625 -0.02453613 C32.34723968 0.05719316 35.57473138 0.80813314 40 4.53125 C43.62833663 8.35055172 44.31000458 11.41404006 44.5 16.53125 C44.31000458 21.64845994 43.62833663 24.71194828 40 28.53125 C35.42788179 32.30821721 34.24601419 32.53125 28 32.53125 C28 43.09125 28 53.65125 28 64.53125 C30.3925 64.758125 32.785 64.985 35.25 65.21875 C68.00767877 68.88445975 98.4988171 82.92423352 124 103.53125 C129.25174926 99.14682474 134.13222473 94.52282907 138.9375 89.65625 C139.96327148 88.62371094 139.96327148 88.62371094 141.00976562 87.5703125 C142.67551464 85.89291489 144.3388622 84.21321209 146 82.53125 C140.52336088 75.90628333 134.46614094 69.98715163 128.28125 64.02734375 C127.50265625 63.26292969 126.7240625 62.49851563 125.921875 61.7109375 C124.86371582 60.68589111 124.86371582 60.68589111 123.78417969 59.64013672 C120.20842956 55.41362747 119.54455162 51.17809221 119.6875 45.80859375 C120.40347327 40.59093852 122.90296657 37.38201062 127.0625 34.15625 C131.59822874 31.64712346 134.83925744 31.10823831 140 31.53125 C146.26322691 33.7717041 150.68163374 37.63527394 155.28637695 42.30004883 C156.30502586 43.30818382 156.30502586 43.30818382 157.34425354 44.33668518 C159.56904511 46.543982 161.77901226 48.76545622 163.98828125 50.98828125 C165.5384941 52.53579709 167.08930012 54.08271894 168.64067078 55.6290741 C171.88230615 58.86482618 175.11663159 62.10766691 178.34594727 65.35571289 C182.47943679 69.51200956 186.63065132 73.65006364 190.78750324 77.78297901 C193.99038883 80.97139177 197.18366317 84.16929362 200.37413597 87.37012291 C201.90097929 88.89962838 203.43078254 90.42618513 204.96361732 91.94968605 C207.10578861 94.08166598 209.23466569 96.22610812 211.3605957 98.37426758 C211.99179321 98.99736816 212.62299072 99.62046875 213.27331543 100.26245117 C217.93454295 105.01408373 220.57754526 109.21196273 221.4375 115.96875 C220.72644821 121.75874312 218.66649931 125.94604334 214.4375 129.96875 C211.15275546 132.07435548 208.51994622 132.70182106 204.6875 132.78125 C203.57955078 132.81992187 203.57955078 132.81992187 202.44921875 132.859375 C196.47287788 132.05871689 192.42980043 128.38674339 188.3828125 124.20703125 C187.88079315 123.70076706 187.3787738 123.19450287 186.86154175 122.67289734 C185.27544801 121.07014483 183.70016662 119.45723539 182.125 117.84375 C181.04497119 116.7486578 179.96424842 115.65424954 178.8828125 114.56054688 C176.24711946 111.89195477 173.62106521 109.21420764 171 106.53125 C165.74825074 110.91567526 160.86777527 115.53967093 156.0625 120.40625 C155.03672852 121.43878906 155.03672852 121.43878906 153.99023438 122.4921875 C152.32448536 124.16958511 150.6611378 125.84928791 149 127.53125 C152.02853935 132.11238702 155.08386815 136.65060943 158.3125 141.09375 C171.31936724 159.71591676 179.67630667 180.53269564 185 202.53125 C185.17934082 203.24522949 185.35868164 203.95920898 185.54345703 204.69482422 C188.37204325 216.49511292 188.30745576 228.52833146 188.375 240.59375 C188.38705475 241.79413406 188.38705475 241.79413406 188.39935303 243.01876831 C188.51300458 257.96126939 186.70638339 272.4574864 182.8125 286.90625 C182.50276245 288.06205566 182.50276245 288.06205566 182.18676758 289.24121094 C172.86350743 322.5112698 153.90726172 349.23763311 129.46533203 373.09814453 C127.62867649 374.89440712 125.81209814 376.7102472 124 378.53125 C129.61011396 385.57828689 135.28663056 392.5677758 141 399.53125 C142.50028317 401.36435162 144.00028408 403.19768427 145.5 405.03125 C146.2425 405.93875 146.985 406.84625 147.75 407.78125 C163.5 427.03125 163.5 427.03125 165.75390625 429.7890625 C167.23691051 431.59961727 168.72381919 433.40698186 170.21484375 435.2109375 C174.39231768 440.27676704 178.48877034 445.39579585 182.5 450.59375 C182.93368896 451.15433105 183.36737793 451.71491211 183.81420898 452.29248047 C188.47912844 458.37325211 188.70734669 462.91980112 188 470.53125 C185.73212562 475.4159025 182.8846525 478.26337562 178 480.53125 C172.54858177 481.26509476 167.92291514 481.56512905 162.9921875 478.9140625 C159.57346968 476.19158486 156.89554278 473.26609582 154.125 469.90625 C153.60252686 469.28451904 153.08005371 468.66278809 152.54174805 468.0222168 C148.93826504 463.71702334 145.40443424 459.35669164 141.921875 454.953125 C138.33623264 450.43463259 134.65876306 445.99056292 131 441.53125 C129.49971683 439.69814838 127.99971592 437.86481573 126.5 436.03125 C125.7575 435.12375 125.015 434.21625 124.25 433.28125 C114.5 421.36458333 104.75 409.44791667 95 397.53125 C94.38294189 397.80275879 93.76588379 398.07426758 93.13012695 398.35400391 C79.00102935 404.5247936 65.01967718 409.9758822 50 413.53125 C48.93990723 413.79591064 48.93990723 413.79591064 47.85839844 414.06591797 C25.3016551 419.47717665 -3.52925016 419.15275642 -26 413.53125 C-26.81033691 413.33789062 -27.62067383 413.14453125 -28.45556641 412.9453125 C-41.57735137 409.74572015 -53.79480541 404.98025847 -66.06494141 399.37573242 C-68.14922375 398.43171668 -68.14922375 398.43171668 -71 397.53125 C-77.14151465 404.63493528 -83.25208072 411.74255868 -89.078125 419.109375 C-92.66376736 423.62786741 -96.34123694 428.07193708 -100 432.53125 C-101.50028317 434.36435162 -103.00028408 436.19768427 -104.5 438.03125 C-122.5 460.03125 -122.5 460.03125 -124.73828125 462.75390625 C-126.29431794 464.66468705 -127.83246872 466.59012813 -129.35546875 468.52734375 C-138.51734104 480.08327312 -138.51734104 480.08327312 -144.82421875 480.89453125 C-149.63255107 481.10153203 -153.10057231 480.94884143 -157.5 478.90625 C-162.3143755 474.33259327 -164.25156236 471.2225038 -164.5 464.53125 C-164.28684577 459.26698645 -163.53408372 456.5825167 -160 452.53125 C-158.60225062 450.80363177 -157.20666137 449.07426499 -155.8125 447.34375 C-154.20967253 445.40514198 -152.60548574 443.46765711 -151 441.53125 C-149.49859322 439.69906857 -147.99857038 437.86575209 -146.5 436.03125 C-137.5 425.03125 -128.5 414.03125 -119.5 403.03125 C-118.76136719 402.12761719 -118.02273437 401.22398437 -117.26171875 400.29296875 C-115.72604021 398.41779651 -114.18685232 396.54549386 -112.64453125 394.67578125 C-108.2917476 389.38973746 -104.04015901 384.06072252 -100 378.53125 C-102.88354314 375.62517918 -105.79814858 372.75860422 -108.75 369.921875 C-135.03897449 344.44998189 -152.48347271 314.22259646 -161 278.53125 C-161.17789063 277.8201709 -161.35578125 277.1090918 -161.5390625 276.37646484 C-166.94397649 253.83990381 -166.63856059 224.97910442 -161 202.53125 C-160.80132324 201.71027832 -160.60264648 200.88930664 -160.39794922 200.04345703 C-153.80471815 173.408779 -142.01246158 149.98682869 -125 128.53125 C-129.38442526 123.27950074 -134.00842093 118.39902527 -138.875 113.59375 C-139.56335938 112.90990234 -140.25171875 112.22605469 -140.9609375 111.52148438 C-142.63833511 109.85573536 -144.31803791 108.1923878 -146 106.53125 C-152.62496667 112.00788912 -158.54409837 118.06510906 -164.50390625 124.25 C-165.26832031 125.02859375 -166.03273438 125.8071875 -166.8203125 126.609375 C-167.50367676 127.31481445 -168.18704102 128.02025391 -168.89111328 128.74707031 C-173.11762253 132.32282044 -177.35315779 132.98669838 -182.72265625 132.84375 C-187.94031148 132.12777673 -191.14923938 129.62828343 -194.375 125.46875 C-196.88412654 120.93302126 -197.42301169 117.69199256 -197 112.53125 C-194.7595459 106.26802309 -190.89597606 101.84961626 -186.23120117 97.24487305 C-185.55911118 96.56577377 -184.88702118 95.8866745 -184.19456482 95.18699646 C-181.987268 92.96220489 -179.76579378 90.75223774 -177.54296875 88.54296875 C-175.99545291 86.9927559 -174.44853106 85.44194988 -172.9021759 83.89057922 C-169.66642382 80.64894385 -166.42358309 77.41461841 -163.17553711 74.18530273 C-159.01924044 70.05181321 -154.88118636 65.90059868 -150.74827099 61.74374676 C-147.55985823 58.54086117 -144.36195638 55.34758683 -141.16112709 52.15711403 C-139.63162162 50.63027071 -138.10506487 49.10046746 -136.58156395 47.56763268 C-134.44958402 45.42546139 -132.30514188 43.29658431 -130.15698242 41.1706543 C-129.53388184 40.53945679 -128.91078125 39.90825928 -128.26879883 39.25793457 C-123.51716627 34.59670705 -119.31928727 31.95370474 -112.5625 31.09375 C-106.77250688 31.80480179 -102.58520666 33.86475069 -98.5625 38.09375 C-96.45689452 41.37849454 -95.82942894 44.01130378 -95.75 47.84375 C-95.72421875 48.58238281 -95.6984375 49.32101563 -95.671875 50.08203125 C-96.47253311 56.05837212 -100.14450661 60.10144957 -104.32421875 64.1484375 C-104.83048294 64.65045685 -105.33674713 65.1524762 -105.85835266 65.66970825 C-107.46110517 67.25580199 -109.07401461 68.83108338 -110.6875 70.40625 C-111.7825922 71.48627881 -112.87700046 72.56700158 -113.97070312 73.6484375 C-116.63929523 76.28413054 -119.31704236 78.91018479 -122 81.53125 C-117.61557474 86.78299926 -112.99157907 91.66347473 -108.125 96.46875 C-107.43664062 97.15259766 -106.74828125 97.83644531 -106.0390625 98.54101562 C-104.36166489 100.20676464 -102.68196209 101.8701122 -101 103.53125 C-96.41886298 100.50271065 -91.88064057 97.44738185 -87.4375 94.21875 C-64.09567541 77.91538328 -32.89062195 64.53125 -4 64.53125 C-4 53.97125 -4 43.41125 -4 32.53125 C-5.98 32.53125 -7.96 32.53125 -10 32.53125 C-14.77054673 30.0505657 -17.72954418 27.42146253 -20 22.53125 C-20.75381535 16.9314788 -20.77303575 12.19625009 -18.375 7.03125 C-12.56912379 0.91980136 -8.09275421 -0.07179748 0 0 Z M-91.25 140.34375 C-117.58691489 167.00043856 -131.21872611 202.69933736 -131.25 239.90625 C-131.25067474 240.62467072 -131.25134949 241.34309143 -131.25204468 242.08328247 C-131.23593827 252.86810481 -130.74183998 263.04645393 -128 273.53125 C-127.82307617 274.22669922 -127.64615234 274.92214844 -127.46386719 275.63867188 C-117.70900102 313.41140061 -93.57027277 344.99441722 -60.24560547 365.16259766 C-27.09647052 384.3453883 12.47418396 388.99846488 49.35546875 379.43359375 C86.77498016 369.20800559 118.33534042 344.39356986 137.75 310.84375 C149.71747479 289.22491251 155.22933774 265.73838567 155.25 241.15625 C155.25067474 240.43782928 155.25134949 239.71940857 155.25204468 238.97921753 C155.23593827 228.19439519 154.74183998 218.01604607 152 207.53125 C151.82307617 206.83580078 151.64615234 206.14035156 151.46386719 205.42382812 C141.70935295 167.65246213 117.57059125 136.06585175 84.24536133 115.89990234 C26.60797087 82.54199871 -44.40954724 94.67856115 -91.25 140.34375 Z " fill="#000000" transform="translate(244,15.46875)"/>
<path d="M0 0 C3.74636029 1.35929887 6.11613597 3.43406921 8.07788086 6.90966797 C12.20814422 16.24072837 14.02118226 26.03281065 16 36 C16.16951172 36.80937012 16.33902344 37.61874023 16.51367188 38.45263672 C22.34258773 67.240467 21.10012755 100.38904842 15 129 C14.81808105 129.88365234 14.63616211 130.76730469 14.44873047 131.67773438 C8.66946683 159.05047547 -2.34150594 184.90844359 -16.875 208.75 C-17.65943481 210.04478271 -17.65943481 210.04478271 -18.4597168 211.36572266 C-21.83879196 216.7263775 -25.2029647 221.10148235 -31 224 C-36.53042052 224.50502343 -41.41030524 224.73807257 -46.5 222.375 C-51.17457767 217.93415121 -53.7877132 213.871802 -54.21875 207.40625 C-53.59305248 200.52357724 -48.74880302 194.5759001 -45.1875 188.875 C-27.29659015 160.20237424 -15.10289124 125.35345094 -14.76171875 91.34765625 C-14.75201553 90.53840195 -14.74231232 89.72914764 -14.73231506 88.89537048 C-14.7074611 86.28436267 -14.69479362 83.67361423 -14.6875 81.0625 C-14.68357239 79.72433228 -14.68357239 79.72433228 -14.67956543 78.35913086 C-14.67390171 60.32747745 -16.67149338 43.4580405 -21.3125 26 C-23.16438561 19.02261996 -23.75701457 13.95328278 -20.75 7.1875 C-14.87110744 -0.1611157 -8.99900656 -0.97940532 0 0 Z " fill="#000000" transform="translate(477,176)"/>
<path d="M0 0 C3.5625 1.8125 3.5625 1.8125 6 4 C6.86625 4.680625 6.86625 4.680625 7.75 5.375 C11.40106781 10.12138815 11.0249987 14.61832115 10.40087891 20.22875977 C9.61148051 25.68580067 8.22647686 31.00203868 6.90429688 36.34960938 C3.48202579 50.68615039 2.59059789 64.7056274 2.625 79.375 C2.62554382 80.25129059 2.62608765 81.12758118 2.62664795 82.03042603 C2.73755492 121.04261764 13.72888412 158.5186937 34.71875 191.40625 C43.02241478 204.43535559 43.02241478 204.43535559 41.578125 212.03125 C40.05810159 217.20754594 37.31810707 219.89982056 33 223 C30.36410867 224.31794566 28.25726633 224.27893485 25.3125 224.375 C24.29800781 224.42398438 23.28351563 224.47296875 22.23828125 224.5234375 C17.07691446 223.68915143 13.7691393 221.1855936 10.49926758 217.14599609 C8.99583017 214.97490953 7.61052832 212.76335666 6.25 210.5 C5.74049805 209.66903809 5.23099609 208.83807617 4.70605469 207.98193359 C-18.90659922 168.93135865 -31.46765549 126.35047894 -31.375 80.6875 C-31.37478851 79.72255615 -31.37457703 78.7576123 -31.37435913 77.76342773 C-31.33968119 61.86088077 -30.33918917 46.59531927 -27 31 C-26.79681152 30.03126953 -26.59362305 29.06253906 -26.38427734 28.06445312 C-22.05613934 7.95473586 -22.05613934 7.95473586 -15.5 1.5625 C-10.33610232 -0.74281147 -5.56654398 -0.77122214 0 0 Z " fill="#000000" transform="translate(47,176)"/>
<path d="M0 0 C4.95588436 2.30094631 7.41954596 5.23132573 10 10 C10.40959217 12.9728135 10.19144296 15.83074898 9.95874023 18.81469727 C9.85869066 20.61581285 9.75953597 22.41697831 9.66114807 24.21818542 C9.60213381 25.16940969 9.54311954 26.12063396 9.48231697 27.10068321 C4.2674138 75.41626436 4.2674138 75.41626436 19.18359375 119.20703125 C25.70058613 126.52433673 33.57480728 132.82525812 42.04490662 137.76472473 C47.05538308 140.73577324 49.07230222 143.13042434 50.68618774 148.77151489 C51.3521508 153.50073982 50.36419107 157.76768734 47.8828125 161.828125 C45.59925231 164.74994736 43.42589903 166.65758212 40 168 C37.1953125 168.3359375 37.1953125 168.3359375 34.125 168.375 C33.11695313 168.40335938 32.10890625 168.43171875 31.0703125 168.4609375 C23.19516437 167.27866335 17.64177678 159.9319505 12.296875 154.5625 C10.91837372 153.1868689 10.91837372 153.1868689 9.51202393 151.78344727 C7.57571433 149.85007305 5.64303505 147.91316135 3.71289062 145.97363281 C1.24270998 143.49202653 -1.23638557 141.01955125 -3.71825027 138.54963684 C-6.09307986 136.18377865 -8.46025342 133.81032234 -10.828125 131.4375 C-12.16245575 130.10924194 -12.16245575 130.10924194 -13.52374268 128.75415039 C-14.34509705 127.9264917 -15.16645142 127.09883301 -16.01269531 126.24609375 C-16.73628235 125.52091553 -17.45986938 124.7957373 -18.2053833 124.04858398 C-21.17867808 120.65451991 -22.24819307 117.96340823 -22.26742554 113.45925903 C-22.27595551 112.5537027 -22.28448547 111.64814636 -22.29327393 110.71514893 C-22.29236755 109.72907654 -22.29146118 108.74300415 -22.29052734 107.72705078 C-22.29724457 106.68271881 -22.30396179 105.63838684 -22.31088257 104.56240845 C-22.32989596 101.10666153 -22.33378845 97.65110848 -22.3359375 94.1953125 C-22.34236299 91.7940157 -22.34909116 89.3927197 -22.35610962 86.99142456 C-22.36809068 81.95601588 -22.37178957 76.92067584 -22.37060547 71.88525391 C-22.37040221 65.43328574 -22.39770814 58.98175771 -22.43214989 52.52989388 C-22.45438807 47.56963072 -22.45844395 42.60947401 -22.45738602 37.64916611 C-22.45974647 35.27052162 -22.46859487 32.8918744 -22.48405075 30.51327896 C-22.50364802 27.18578522 -22.49789662 23.85924744 -22.48583984 20.53173828 C-22.49707886 19.54971436 -22.50831787 18.56769043 -22.51989746 17.5559082 C-22.46735646 11.84899649 -21.8490825 8.50871051 -18 4 C-12.72867143 -1.00776214 -6.89190982 -0.92775709 0 0 Z " fill="#000000" transform="translate(262,144)"/>
</svg>
