<svg width="20" height="20" viewBox="0 0 20 20" fill="none" xmlns="http://www.w3.org/2000/svg">
<path d="M7.14284 9.28574C9.11528 9.28574 10.7143 7.68675 10.7143 5.71431C10.7143 3.74187 9.11528 2.14288 7.14284 2.14288C5.1704 2.14288 3.57141 3.74187 3.57141 5.71431C3.57141 7.68675 5.1704 9.28574 7.14284 9.28574Z" stroke="white" stroke-linecap="round" stroke-linejoin="round"/>
<path d="M0.714294 19.2857H7.14287H13.5714V18.5113C13.5601 17.4225 13.2729 16.3542 12.7368 15.4065C12.2006 14.4586 11.433 13.6622 10.5056 13.0915C9.57822 12.5208 8.52131 12.1944 7.43361 12.1429C7.33664 12.1383 7.23969 12.1359 7.14287 12.1357C7.04604 12.1359 6.94909 12.1383 6.85212 12.1429C5.76442 12.1944 4.70751 12.5208 3.78011 13.0915C2.85272 13.6622 2.08511 14.4586 1.54897 15.4065C1.01283 16.3542 0.725667 17.4225 0.714294 18.5113V19.2857Z" stroke="white" stroke-linecap="round" stroke-linejoin="round"/>
<path d="M12.8572 9.28574C14.8296 9.28574 16.4286 7.68675 16.4286 5.71431C16.4286 3.74187 14.8296 2.14288 12.8572 2.14288" stroke="white" stroke-linecap="round" stroke-linejoin="round"/>
<path d="M16.4286 19.2859H19.2857V18.5113C19.2743 17.4225 18.9871 16.3542 18.451 15.4065C17.9148 14.4586 17.1473 13.6622 16.2198 13.0915C15.6204 12.7226 14.9667 12.4558 14.2857 12.2993" stroke="white" stroke-linecap="round" stroke-linejoin="round"/>
</svg>
