<svg width="20" height="20" viewBox="0 0 20 20" fill="none" xmlns="http://www.w3.org/2000/svg">
<path d="M17.8572 3.57141H2.14287C1.35389 3.57141 0.714294 4.21101 0.714294 4.99998V15C0.714294 15.789 1.35389 16.4286 2.14287 16.4286H17.8572C18.6462 16.4286 19.2857 15.789 19.2857 15V4.99998C19.2857 4.21101 18.6462 3.57141 17.8572 3.57141Z" stroke="white" stroke-linecap="round" stroke-linejoin="round"/>
<path d="M10 12.8571C11.578 12.8571 12.8572 11.5779 12.8572 9.99996C12.8572 8.42201 11.578 7.14282 10 7.14282C8.42207 7.14282 7.14288 8.42201 7.14288 9.99996C7.14288 11.5779 8.42207 12.8571 10 12.8571Z" stroke="white" stroke-linecap="round" stroke-linejoin="round"/>
<path d="M3.96414 10.3571C3.76689 10.3571 3.60699 10.1972 3.60699 9.99996C3.60699 9.80272 3.76689 9.64282 3.96414 9.64282" stroke="white" stroke-linecap="round" stroke-linejoin="round"/>
<path d="M3.96411 10.3571C4.16135 10.3571 4.32125 10.1972 4.32125 9.99996C4.32125 9.80272 4.16135 9.64282 3.96411 9.64282" stroke="white" stroke-linecap="round" stroke-linejoin="round"/>
<path d="M16.0359 10.3571C15.8386 10.3571 15.6787 10.1972 15.6787 9.99996C15.6787 9.80272 15.8386 9.64282 16.0359 9.64282" stroke="white" stroke-linecap="round" stroke-linejoin="round"/>
<path d="M16.0358 10.3571C16.2331 10.3571 16.393 10.1972 16.393 9.99996C16.393 9.80272 16.2331 9.64282 16.0358 9.64282" stroke="white" stroke-linecap="round" stroke-linejoin="round"/>
</svg>
