<svg width="20" height="20" viewBox="0 0 20 20" fill="none" xmlns="http://www.w3.org/2000/svg">
<path d="M5.85382 5.21516C5.85382 6.12278 6.58958 6.85855 7.49719 6.85855C7.72665 6.85855 7.94511 6.81152 8.14349 6.72659C8.72981 6.47555 9.14058 5.89333 9.14058 5.21516C9.14058 4.30755 8.40481 3.57178 7.49719 3.57178C6.58958 3.57178 5.85382 4.30755 5.85382 5.21516Z" stroke="white" stroke-linecap="round" stroke-linejoin="round"/>
<path d="M5 8.48579C5.26113 7.98911 5.62814 7.57861 6.06574 7.29377C6.50334 7.00893 6.99681 6.85931 7.49873 6.85931C8.00064 6.85931 8.49411 7.00893 8.93171 7.29377C9.36931 7.57861 9.73633 7.98911 9.99746 8.48579" stroke="white" stroke-linecap="round" stroke-linejoin="round"/>
<path d="M17.8572 17.8572C17.8572 18.236 17.7066 18.5994 17.4387 18.8673C17.1709 19.1352 16.8075 19.2857 16.4286 19.2857H3.57145C3.19257 19.2857 2.82921 19.1352 2.5613 18.8673C2.2934 18.5994 2.14288 18.236 2.14288 17.8572V2.14287C2.14288 1.76398 2.2934 1.40062 2.5613 1.13271C2.82921 0.864804 3.19257 0.714294 3.57145 0.714294H12.8572L17.8572 5.71429V17.8572Z" stroke="white" stroke-linecap="round" stroke-linejoin="round"/>
<path d="M5 12.1429H15" stroke="white" stroke-linecap="round"/>
<path d="M5 15.7143H10.7143" stroke="white" stroke-linecap="round"/>
</svg>
